<svg width="25" height="25" viewBox="0 0 25 25" fill="none" xmlns="http://www.w3.org/2000/svg">
<path d="M18.31 6.15406V6.89406L14.77 4.84406C13.43 4.07406 11.56 4.07406 10.23 4.84406L6.69 6.90406V6.15406C6.69 3.90406 7.92 2.66406 10.17 2.66406H14.83C17.08 2.66406 18.31 3.90406 18.31 6.15406Z" fill="currentColor"/>
<path d="M18.34 8.6343L18.2 8.5643L16.84 7.7843L14.02 6.1543C13.16 5.6543 11.84 5.6543 10.98 6.1543L8.16 7.7743L6.8 8.5743L6.62 8.6643C4.87 9.8443 4.75 10.0643 4.75 11.9543V16.4743C4.75 18.3643 4.87 18.5843 6.66 19.7943L10.98 22.2843C11.41 22.5443 11.95 22.6543 12.5 22.6543C13.04 22.6543 13.59 22.5343 14.02 22.2843L18.38 19.7643C20.14 18.5843 20.25 18.3743 20.25 16.4743V11.9543C20.25 10.0643 20.13 9.8443 18.34 8.6343ZM15.29 14.1643L14.68 14.9143C14.58 15.0243 14.51 15.2343 14.52 15.3843L14.58 16.3443C14.62 16.9343 14.2 17.2343 13.65 17.0243L12.76 16.6643C12.62 16.6143 12.39 16.6143 12.25 16.6643L11.36 17.0143C10.81 17.2343 10.39 16.9243 10.43 16.3343L10.49 15.3743C10.5 15.2243 10.43 15.0143 10.33 14.9043L9.71 14.1643C9.33 13.7143 9.5 13.2143 10.07 13.0643L11 12.8243C11.15 12.7843 11.32 12.6443 11.4 12.5243L11.92 11.7243C12.24 11.2243 12.75 11.2243 13.08 11.7243L13.6 12.5243C13.68 12.6543 13.86 12.7843 14 12.8243L14.93 13.0643C15.5 13.2143 15.67 13.7143 15.29 14.1643Z" fill="currentColor"/>
</svg>
