<svg width="16" height="16" viewBox="0 0 16 16" fill="none" xmlns="http://www.w3.org/2000/svg">
<path d="M14.4854 3.36782V11.0765C14.4854 11.7054 13.9732 12.2824 13.3443 12.3602L13.1433 12.3861C12.08 12.5288 10.5824 12.9696 9.3765 13.4753C8.95508 13.6504 8.48828 13.3327 8.48828 12.8724V3.85407C8.48828 3.61419 8.62443 3.39375 8.83838 3.27705C10.0248 2.6352 11.8207 2.06467 13.0396 1.96094H13.0785C13.8565 1.96094 14.4854 2.58982 14.4854 3.36782Z" fill="#3490FC"/>
<path d="M7.16616 3.27705C5.97971 2.6352 4.18383 2.06467 2.96496 1.96094H2.91958C2.14158 1.96094 1.5127 2.58982 1.5127 3.36782V11.0765C1.5127 11.7054 2.02488 12.2824 2.65376 12.3602L2.85475 12.3861C3.91801 12.5288 5.41566 12.9696 6.62156 13.4753C7.04298 13.6504 7.50978 13.3327 7.50978 12.8724V3.85407C7.50978 3.6077 7.38011 3.39375 7.16616 3.27705ZM3.46418 5.2415H4.92293C5.18875 5.2415 5.40918 5.46194 5.40918 5.72775C5.40918 6.00005 5.18875 6.214 4.92293 6.214H3.46418C3.19836 6.214 2.97793 6.00005 2.97793 5.72775C2.97793 5.46194 3.19836 5.2415 3.46418 5.2415ZM5.40918 8.159H3.46418C3.19836 8.159 2.97793 7.94505 2.97793 7.67275C2.97793 7.40694 3.19836 7.1865 3.46418 7.1865H5.40918C5.675 7.1865 5.89543 7.40694 5.89543 7.67275C5.89543 7.94505 5.675 8.159 5.40918 8.159Z" fill="#3490FC"/>
</svg>
