<svg width="17" height="17" viewBox="0 0 17 17" fill="none" xmlns="http://www.w3.org/2000/svg">
<path d="M15.0303 3.98354V11.6922C15.0303 12.3211 14.5181 12.8981 13.8892 12.9759L13.6882 13.0019C12.625 13.1445 11.1273 13.5854 9.92142 14.0911C9.5 14.2661 9.0332 13.9484 9.0332 13.4881V4.46979C9.0332 4.22991 9.16935 4.00948 9.3833 3.89278C10.5698 3.25093 12.3656 2.68039 13.5845 2.57666H13.6234C14.4014 2.57666 15.0303 3.20554 15.0303 3.98354Z"/>
<path d="M7.71108 3.89278C6.52463 3.25093 4.72875 2.68039 3.50988 2.57666H3.4645C2.6865 2.57666 2.05762 3.20554 2.05762 3.98354V11.6922C2.05762 12.3211 2.5698 12.8981 3.19868 12.9759L3.39967 13.0019C4.46293 13.1445 5.96058 13.5854 7.16648 14.0911C7.5879 14.2661 8.0547 13.9484 8.0547 13.4881V4.46979C8.0547 4.22343 7.92503 4.00948 7.71108 3.89278ZM4.0091 5.85723H5.46785C5.73367 5.85723 5.9541 6.07766 5.9541 6.34348C5.9541 6.61578 5.73367 6.82973 5.46785 6.82973H4.0091C3.74328 6.82973 3.52285 6.61578 3.52285 6.34348C3.52285 6.07766 3.74328 5.85723 4.0091 5.85723ZM5.9541 8.77473H4.0091C3.74328 8.77473 3.52285 8.56078 3.52285 8.28848C3.52285 8.02266 3.74328 7.80223 4.0091 7.80223H5.9541C6.21992 7.80223 6.44035 8.02266 6.44035 8.28848C6.44035 8.56078 6.21992 8.77473 5.9541 8.77473Z"/>
</svg>
