<svg width="24" height="25" viewBox="0 0 24 25" fill="none" xmlns="http://www.w3.org/2000/svg">
<path d="M20.5 16.6641V19.1641C20.5 21.0941 18.93 22.6641 17 22.6641H7C5.07 22.6641 3.5 21.0941 3.5 19.1641V18.5141C3.5 16.9441 4.78 15.6641 6.35 15.6641H19.5C20.05 15.6641 20.5 16.1141 20.5 16.6641Z" fill="currentColor"/>
<path d="M15.5 2.66406H8.5C4.5 2.66406 3.5 3.66406 3.5 7.66406V15.2441C4.26 14.5741 5.26 14.1641 6.35 14.1641H19.5C20.05 14.1641 20.5 13.7141 20.5 13.1641V7.66406C20.5 3.66406 19.5 2.66406 15.5 2.66406ZM13 11.4141H8C7.59 11.4141 7.25 11.0741 7.25 10.6641C7.25 10.2541 7.59 9.91406 8 9.91406H13C13.41 9.91406 13.75 10.2541 13.75 10.6641C13.75 11.0741 13.41 11.4141 13 11.4141ZM16 7.91406H8C7.59 7.91406 7.25 7.57406 7.25 7.16406C7.25 6.75406 7.59 6.41406 8 6.41406H16C16.41 6.41406 16.75 6.75406 16.75 7.16406C16.75 7.57406 16.41 7.91406 16 7.91406Z" fill="currentColor"/>
</svg>
