<svg width="18" height="19" viewBox="0 0 18 19" fill="none" xmlns="http://www.w3.org/2000/svg">
<path d="M15.6786 5.78931C15.049 5.09302 13.9972 4.74487 12.4712 4.74487H12.2935V4.71524C12.2935 3.47079 12.2935 1.93005 9.50827 1.93005H8.38234C5.59716 1.93005 5.59716 3.4782 5.59716 4.71524V4.75228H5.41938C3.88604 4.75228 2.8416 5.10042 2.21197 5.79672C1.47864 6.61153 1.50086 7.70783 1.57493 8.45598L1.58234 8.50783L1.63972 9.11026C1.65028 9.22121 1.71003 9.32142 1.80329 9.38244C1.98092 9.49868 2.27821 9.69031 2.45642 9.78931C2.56012 9.85598 2.67123 9.91524 2.78234 9.9745C4.04901 10.6708 5.4416 11.1375 6.85641 11.3671C6.92308 12.0634 7.22678 12.8782 8.84901 12.8782C10.4712 12.8782 10.7897 12.0708 10.8416 11.3523C12.3527 11.1078 13.812 10.5819 15.1305 9.81153C15.1749 9.78931 15.2046 9.76709 15.2416 9.74487C15.5355 9.57877 15.8403 9.37411 16.1182 9.17364C16.202 9.11325 16.2555 9.01987 16.2669 8.91727L16.2786 8.81153L16.3157 8.46339C16.3231 8.41894 16.3231 8.3819 16.3305 8.33005C16.3897 7.5819 16.3749 6.55968 15.6786 5.78931ZM9.75271 10.8634C9.75271 11.6486 9.75271 11.7671 8.8416 11.7671C7.93049 11.7671 7.93049 11.6263 7.93049 10.8708V9.93746H9.75271V10.8634ZM6.65641 4.74487V4.71524C6.65641 3.45598 6.65641 2.98931 8.38234 2.98931H9.50827C11.2342 2.98931 11.2342 3.46339 11.2342 4.71524V4.75228H6.65641V4.74487Z" fill="#2B2F38"/>
<path d="M15.5182 10.7924C15.7801 10.6678 16.0818 10.8754 16.0555 11.1643L15.7897 14.093C15.6341 15.5745 15.0267 17.0856 11.7674 17.0856H6.12301C2.86375 17.0856 2.25634 15.5745 2.10078 14.1004L1.8484 11.3243C1.82245 11.0387 2.11723 10.8313 2.37844 10.9495C3.22245 11.3314 4.78034 12.0089 5.74269 12.2609C5.8644 12.2928 5.96284 12.3799 6.01613 12.4939C6.46573 13.4554 7.44087 13.9671 8.84893 13.9671C10.2431 13.9671 11.2305 13.4357 11.6816 12.4718C11.735 12.3578 11.8335 12.2707 11.9553 12.2386C12.9772 11.9697 14.6354 11.2125 15.5182 10.7924Z" fill="#2B2F38"/>
</svg>
