<svg width="25" height="25" viewBox="0 0 25 25" fill="none" xmlns="http://www.w3.org/2000/svg">
<path d="M3.20312 22.7539H21.2031" stroke="#9FA3A9" stroke-width="1.5" stroke-linecap="round" stroke-linejoin="round"/>
<path d="M5.8031 9.13379H4.20312C3.65312 9.13379 3.20312 9.58379 3.20312 10.1338V18.7538C3.20312 19.3038 3.65312 19.7538 4.20312 19.7538H5.8031C6.3531 19.7538 6.8031 19.3038 6.8031 18.7538V10.1338C6.8031 9.58379 6.3531 9.13379 5.8031 9.13379Z" stroke="#9FA3A9" stroke-width="1.5" stroke-linecap="round" stroke-linejoin="round"/>
<path d="M13.0031 5.94385H11.4031C10.8531 5.94385 10.4031 6.39385 10.4031 6.94385V18.7538C10.4031 19.3038 10.8531 19.7538 11.4031 19.7538H13.0031C13.5531 19.7538 14.0031 19.3038 14.0031 18.7538V6.94385C14.0031 6.39385 13.5531 5.94385 13.0031 5.94385Z" stroke="#9FA3A9" stroke-width="1.5" stroke-linecap="round" stroke-linejoin="round"/>
<path d="M20.2031 2.75391H18.6031C18.0531 2.75391 17.6031 3.20391 17.6031 3.75391V18.7539C17.6031 19.3039 18.0531 19.7539 18.6031 19.7539H20.2031C20.7531 19.7539 21.2031 19.3039 21.2031 18.7539V3.75391C21.2031 3.20391 20.7531 2.75391 20.2031 2.75391Z" stroke="#9FA3A9" stroke-width="1.5" stroke-linecap="round" stroke-linejoin="round"/>
</svg>
