<svg width="20" height="21" viewBox="0 0 20 21" fill="none" xmlns="http://www.w3.org/2000/svg">
<path d="M10 0.696777C4.49 0.696777 0 5.18678 0 10.6968C0 16.2068 4.49 20.6968 10 20.6968C15.51 20.6968 20 16.2068 20 10.6968C20 5.18678 15.51 0.696777 10 0.696777ZM12.79 11.2268L9.26 14.7568C9.11 14.9068 8.92 14.9768 8.73 14.9768C8.54 14.9768 8.35 14.9068 8.2 14.7568C7.91 14.4668 7.91 13.9868 8.2 13.6968L11.2 10.6968L8.2 7.69678C7.91 7.40678 7.91 6.92678 8.2 6.63678C8.49 6.34678 8.97 6.34678 9.26 6.63678L12.79 10.1668C13.09 10.4568 13.09 10.9368 12.79 11.2268Z" fill="#F1F1F2"/>
<path d="M12.79 11.2268L9.26 14.7568C9.11 14.9068 8.92 14.9768 8.73 14.9768C8.54 14.9768 8.35 14.9068 8.2 14.7568C7.91 14.4668 7.91 13.9868 8.2 13.6968L11.2 10.6968L8.2 7.69678C7.91 7.40678 7.91 6.92678 8.2 6.63678C8.49 6.34678 8.97 6.34678 9.26 6.63678L12.79 10.1668C13.09 10.4568 13.09 10.9368 12.79 11.2268Z" fill="#989FAD"/>
</svg>
