<svg width="25" height="25" viewBox="0 0 25 25" fill="none" xmlns="http://www.w3.org/2000/svg">
<path d="M14.3887 3.54274L9.69874 2.80274C5.78874 2.19274 3.97874 3.51274 3.35874 7.42274L2.61874 12.1127C2.21874 14.6727 2.63874 16.3327 4.08874 17.3427C4.84874 17.8827 5.88874 18.2427 7.23874 18.4527L11.9287 19.1927C15.8387 19.8027 17.6487 18.4827 18.2687 14.5727L18.9987 9.88274C19.1187 9.11274 19.1687 8.42274 19.1287 7.81274C18.9987 5.31274 17.5287 4.03274 14.3887 3.54274ZM8.73874 10.0127C7.56874 10.0127 6.61874 9.06274 6.61874 7.90274C6.61874 6.73274 7.56874 5.78274 8.73874 5.78274C9.89874 5.78274 10.8487 6.73274 10.8487 7.90274C10.8487 9.06274 9.89874 10.0127 8.73874 10.0127Z" fill="currentColor"/>
<path d="M20.9988 14.1327L19.4988 18.6427C18.2488 22.4027 16.2488 23.4027 12.4888 22.1527L7.97876 20.6527C6.56876 20.1827 5.54876 19.6027 4.88876 18.8727C5.51876 19.1227 6.24876 19.3127 7.07876 19.4427L11.7788 20.1827C12.4188 20.2827 13.0188 20.3327 13.5788 20.3327C16.8788 20.3327 18.6488 18.5527 19.2588 14.7227L19.9888 10.0327C20.0888 9.45266 20.1288 8.94266 20.1288 8.47266C21.6488 9.72266 21.8688 11.5027 20.9988 14.1327Z" fill="currentColor"/>
</svg>
