<svg width="20" height="21" viewBox="0 0 20 21" fill="none" xmlns="http://www.w3.org/2000/svg">
<path d="M10 2.16675C7.81669 2.16675 6.04169 3.94175 6.04169 6.12508C6.04169 8.26675 7.71669 10.0001 9.90002 10.0751C9.96669 10.0667 10.0334 10.0667 10.0834 10.0751C10.1 10.0751 10.1084 10.0751 10.125 10.0751C10.1334 10.0751 10.1334 10.0751 10.1417 10.0751C12.275 10.0001 13.95 8.26675 13.9584 6.12508C13.9584 3.94175 12.1834 2.16675 10 2.16675Z" fill="currentColor"/>
<path d="M14.2333 12.2917C11.9083 10.7417 8.11663 10.7417 5.77497 12.2917C4.71663 13 4.1333 13.9583 4.1333 14.9833C4.1333 16.0083 4.71663 16.9583 5.76663 17.6583C6.9333 18.4417 8.46663 18.8333 9.99997 18.8333C11.5333 18.8333 13.0666 18.4417 14.2333 17.6583C15.2833 16.95 15.8666 16 15.8666 14.9667C15.8583 13.9417 15.2833 12.9917 14.2333 12.2917Z" fill="currentColor"/>
</svg>
