<svg width="17" height="16" viewBox="0 0 17 16" fill="none" xmlns="http://www.w3.org/2000/svg">
<path d="M13.0405 6.05786C13.0405 3.54881 11.0112 1.51953 8.5022 1.51953C5.99315 1.51953 3.96387 3.54881 3.96387 6.05786C3.96387 8.40483 5.7403 10.3304 8.01595 10.5703V12.0549H6.5572C6.29138 12.0549 6.07095 12.2754 6.07095 12.5412C6.07095 12.807 6.29138 13.0274 6.5572 13.0274H8.01595V14.4862C8.01595 14.752 8.23638 14.9724 8.5022 14.9724C8.76802 14.9724 8.98845 14.752 8.98845 14.4862V13.0274H10.4472C10.713 13.0274 10.9334 12.807 10.9334 12.5412C10.9334 12.2754 10.713 12.0549 10.4472 12.0549H8.98845V10.5703C11.2641 10.3304 13.0405 8.40483 13.0405 6.05786Z" fill="#FF5C76"/>
</svg>
