<svg width="16" height="16" viewBox="0 0 16 16" fill="none" xmlns="http://www.w3.org/2000/svg">
<path d="M14.6094 1.65566C14.564 1.53896 14.4668 1.44171 14.3501 1.39632C14.2853 1.37039 14.2269 1.35742 14.1621 1.35742H9.94792C9.6821 1.35742 9.46167 1.57786 9.46167 1.84367C9.46167 2.10949 9.6821 2.32992 9.94792 2.32992H12.9886L10.0646 5.26039H10.0581C9.18937 4.54074 8.08072 4.11284 6.86833 4.11284C4.09347 4.11284 1.84375 6.36256 1.84375 9.13742C1.84375 11.9123 4.09347 14.162 6.86833 14.162C9.6432 14.162 11.8929 11.9123 11.8929 9.13742C11.8929 7.92504 11.465 6.81639 10.7454 5.94762L13.6758 3.01716V6.05784C13.6758 6.32366 13.8963 6.54409 14.1621 6.54409C14.4279 6.54409 14.6483 6.32366 14.6483 6.05784V1.84367C14.6483 1.77884 14.6354 1.72049 14.6094 1.65566Z" fill="#3490FC"/>
</svg>
