<svg width="19" height="19" viewBox="0 0 19 19" fill="none" xmlns="http://www.w3.org/2000/svg">
<path d="M16.3943 14.2968L15.1651 14.5873C14.8894 14.6544 14.6734 14.863 14.6138 15.1386L14.353 16.2338C14.2115 16.8298 13.4516 17.016 13.0567 16.5467L10.8292 13.9839C10.6504 13.7753 10.7472 13.4475 11.0154 13.3804C12.3341 13.0601 13.5186 12.3225 14.3903 11.2721C14.5318 11.1007 14.7851 11.0784 14.9416 11.2348L16.5955 12.8887C17.1617 13.4549 16.9605 14.1627 16.3943 14.2968Z" fill="#292D32"/>
<path d="M2.57351 14.2968L3.80276 14.5873C4.07841 14.6544 4.29446 14.863 4.35406 15.1386L4.61481 16.2338C4.75636 16.8298 5.51626 17.016 5.91111 16.5467L8.13866 13.9839C8.31746 13.7753 8.22061 13.4475 7.95241 13.3804C6.63376 13.0601 5.44921 12.3225 4.57756 11.2721C4.43601 11.1007 4.18271 11.0784 4.02626 11.2348L2.37236 12.8887C1.80616 13.4549 2.00731 14.1627 2.57351 14.2968Z" fill="#292D32"/>
<path d="M9.50211 2.02661C6.61896 2.02661 4.28711 4.35846 4.28711 7.24161C4.28711 8.32186 4.60746 9.31271 5.15876 10.1397C5.96336 11.3317 7.23731 12.1735 8.71986 12.3896C8.97316 12.4343 9.23391 12.4566 9.50211 12.4566C9.77031 12.4566 10.0311 12.4343 10.2844 12.3896C11.7669 12.1735 13.0409 11.3317 13.8455 10.1397C14.3968 9.31271 14.7171 8.32186 14.7171 7.24161C14.7171 4.35846 12.3853 2.02661 9.50211 2.02661ZM11.7818 7.07771L11.1635 7.69606C11.0592 7.80036 10.9996 8.00151 11.0368 8.15051L11.2156 8.91786C11.3572 9.52131 11.0368 9.75971 10.5004 9.43936L9.75541 8.99981C9.62131 8.91786 9.39781 8.91786 9.26371 8.99981L8.51871 9.43936C7.98231 9.75226 7.66196 9.52131 7.80351 8.91786L7.98231 8.15051C8.01211 8.00896 7.95996 7.80036 7.85566 7.69606L7.22241 7.07771C6.85736 6.71266 6.97656 6.34761 7.48316 6.26566L8.28031 6.13156C8.41441 6.10921 8.57086 5.99001 8.63046 5.87081L9.07001 4.99171C9.30841 4.51491 9.69581 4.51491 9.93421 4.99171L10.3738 5.87081C10.4334 5.99001 10.5898 6.10921 10.7314 6.13156L11.5285 6.26566C12.0277 6.34761 12.1469 6.71266 11.7818 7.07771Z" fill="#292D32"/>
</svg>
