<svg width="24" height="25" viewBox="0 0 24 25" fill="none" xmlns="http://www.w3.org/2000/svg">
<path d="M19 9.17969C19 10.6297 18.57 11.9597 17.83 13.0697C16.75 14.6697 15.04 15.7997 13.05 16.0897C12.71 16.1497 12.36 16.1797 12 16.1797C11.64 16.1797 11.29 16.1497 10.95 16.0897C8.96 15.7997 7.25 14.6697 6.17 13.0697C5.43 11.9597 5 10.6297 5 9.17969C5 5.30969 8.13 2.17969 12 2.17969C15.87 2.17969 19 5.30969 19 9.17969Z" stroke="#9FA3A9" stroke-width="1.5" stroke-linecap="round" stroke-linejoin="round"/>
<path d="M21.25 18.6496L19.6 19.0396C19.23 19.1296 18.94 19.4096 18.86 19.7796L18.51 21.2496C18.32 22.0496 17.3 22.2896 16.77 21.6596L12 16.1796L7.23002 21.6696C6.70002 22.2996 5.68002 22.0596 5.49002 21.2596L5.14002 19.7896C5.05002 19.4196 4.76002 19.1296 4.40002 19.0496L2.75002 18.6596C1.99002 18.4796 1.72002 17.5296 2.27002 16.9796L6.17002 13.0796C7.25002 14.6796 8.96002 15.8096 10.95 16.0996C11.29 16.1596 11.64 16.1896 12 16.1896C12.36 16.1896 12.71 16.1596 13.05 16.0996C15.04 15.8096 16.75 14.6796 17.83 13.0796L21.73 16.9796C22.28 17.5196 22.01 18.4696 21.25 18.6496Z" stroke="#9FA3A9" stroke-width="1.5" stroke-linecap="round" stroke-linejoin="round"/>
<path d="M12.58 6.15969L13.17 7.33968C13.25 7.49968 13.46 7.65969 13.65 7.68969L14.72 7.86968C15.4 7.97968 15.56 8.47969 15.07 8.96969L14.24 9.79967C14.1 9.93967 14.02 10.2097 14.07 10.4097L14.31 11.4397C14.5 12.2497 14.07 12.5697 13.35 12.1397L12.35 11.5497C12.17 11.4397 11.87 11.4397 11.69 11.5497L10.69 12.1397C9.96997 12.5597 9.53997 12.2497 9.72997 11.4397L9.96997 10.4097C10.01 10.2197 9.93997 9.93967 9.79997 9.79967L8.96997 8.96969C8.47997 8.47969 8.63997 7.98968 9.31997 7.86968L10.39 7.68969C10.57 7.65969 10.78 7.49968 10.86 7.33968L11.45 6.15969C11.74 5.51969 12.26 5.51969 12.58 6.15969Z" stroke="#9FA3A9" stroke-width="1.5" stroke-linecap="round" stroke-linejoin="round"/>
</svg>
