<svg width="18" height="19" viewBox="0 0 18 19" fill="none" xmlns="http://www.w3.org/2000/svg">
<path d="M9.00024 11.709C11.7769 11.709 14.0278 9.54144 14.0278 6.86762C14.0278 4.1938 11.7769 2.02625 9.00024 2.02625C6.22358 2.02625 3.97266 4.1938 3.97266 6.86762C3.97266 9.54144 6.22358 11.709 9.00024 11.709Z" fill="#292D32"/>
<path d="M11.8231 12.1633C12.0689 12.0367 12.3519 12.2229 12.3519 12.4985V16.1109C12.3519 16.7813 11.8826 17.109 11.3017 16.8334L9.30554 15.8875C9.13423 15.813 8.86609 15.813 8.69478 15.8875L6.69864 16.8334C6.11768 17.1015 5.64844 16.7738 5.64844 16.1035L5.66333 12.4985C5.66333 12.2229 5.95382 12.0442 6.19216 12.1633C7.03382 12.5879 7.9872 12.8262 9.00016 12.8262C10.0131 12.8262 10.974 12.5879 11.8231 12.1633Z" fill="#292D32"/>
</svg>
