<svg width="24" height="25" viewBox="0 0 24 25" fill="none" xmlns="http://www.w3.org/2000/svg">
<path d="M13.55 20.824C13.29 20.934 13.01 21.034 12.71 21.134L11.13 21.654C7.16001 22.934 5.07001 21.864 3.78001 17.894L2.50001 13.944C1.22001 9.97398 2.28001 7.87398 6.25001 6.59398L7.79001 6.08398C7.60001 6.56398 7.44001 7.11398 7.29001 7.73398L6.31001 11.924C5.21001 16.634 6.82001 19.234 11.53 20.354L13.21 20.754C13.32 20.784 13.44 20.804 13.55 20.824Z" fill="currentColor"/>
<path d="M17.17 3.87407L15.5 3.48407C12.16 2.69407 10.17 3.34407 9 5.76407C8.7 6.37407 8.46 7.11407 8.26 7.96407L7.28 12.1541C6.3 16.3341 7.59 18.3941 11.76 19.3841L13.44 19.7841C14.02 19.9241 14.56 20.0141 15.06 20.0541C18.18 20.3541 19.84 18.8941 20.68 15.2841L21.66 11.1041C22.64 6.92407 21.36 4.85407 17.17 3.87407Z" fill="currentColor"/>
</svg>
