<svg width="20" height="21" viewBox="0 0 20 21" fill="none" xmlns="http://www.w3.org/2000/svg">
<path d="M10.5648 17.1308C10.7938 17.1841 10.8148 17.4839 10.5918 17.5583L9.2751 17.9916C5.96677 19.0583 4.2251 18.1666 3.1501 14.8583L2.08343 11.5666C1.01677 8.25827 1.9001 6.50827 5.20843 5.4416L5.6451 5.29699C5.98082 5.18581 6.30754 5.52253 6.21221 5.86309C6.16496 6.0319 6.1195 6.20807 6.0751 6.3916L5.25843 9.88327C4.34177 13.8083 5.68343 15.9749 9.60843 16.9083L10.5648 17.1308Z" fill="currentColor"/>
<path d="M14.3083 3.17493L12.9166 2.84993C10.1333 2.19159 8.47493 2.73326 7.49993 4.74993C7.24993 5.25826 7.04993 5.87493 6.88326 6.58326L6.06659 10.0749C5.24993 13.5583 6.32493 15.2749 9.79993 16.0999L11.1999 16.4333C11.6833 16.5499 12.1333 16.6249 12.5499 16.6583C15.1499 16.9083 16.5333 15.6916 17.2333 12.6833L18.0499 9.19992C18.8666 5.71659 17.7999 3.99159 14.3083 3.17493ZM12.7416 11.6083C12.6666 11.8916 12.4166 12.0749 12.1333 12.0749C12.0833 12.0749 12.0333 12.0666 11.9749 12.0583L9.54993 11.4416C9.21659 11.3583 9.01659 11.0166 9.09993 10.6833C9.18326 10.3499 9.52493 10.1499 9.85826 10.2333L12.2833 10.8499C12.6249 10.9333 12.8249 11.2749 12.7416 11.6083ZM15.1833 8.79159C15.1083 9.07492 14.8583 9.25826 14.5749 9.25826C14.5249 9.25826 14.4749 9.24993 14.4166 9.24159L10.3749 8.21659C10.0416 8.13326 9.84159 7.79159 9.92493 7.45826C10.0083 7.12493 10.3499 6.92493 10.6833 7.00826L14.7249 8.03326C15.0666 8.10826 15.2666 8.44992 15.1833 8.79159Z" fill="currentColor"/>
</svg>
