<svg width="20" height="21" viewBox="0 0 20 21" fill="none" xmlns="http://www.w3.org/2000/svg">
<path d="M14.6083 6.97508C14.55 6.96675 14.4916 6.96675 14.4333 6.97508C13.1416 6.93341 12.1166 5.87508 12.1166 4.57508C12.1166 3.25008 13.1916 2.16675 14.525 2.16675C15.85 2.16675 16.9333 3.24175 16.9333 4.57508C16.925 5.87508 15.9 6.93341 14.6083 6.97508Z" fill="currentColor"/>
<path d="M17.325 12.7498C16.3916 13.3748 15.0833 13.6082 13.875 13.4498C14.1916 12.7665 14.3583 12.0082 14.3666 11.2082C14.3666 10.3748 14.1833 9.58318 13.8333 8.89151C15.0666 8.72485 16.375 8.95818 17.3166 9.58318C18.6333 10.4498 18.6333 11.8748 17.325 12.7498Z" fill="currentColor"/>
<path d="M5.36665 6.97508C5.42499 6.96675 5.48332 6.96675 5.54165 6.97508C6.83332 6.93341 7.85832 5.87508 7.85832 4.57508C7.85832 3.24175 6.78332 2.16675 5.44999 2.16675C4.12499 2.16675 3.04999 3.24175 3.04999 4.57508C3.04999 5.87508 4.07499 6.93341 5.36665 6.97508Z" fill="currentColor"/>
<path d="M5.45831 11.2083C5.45831 12.0167 5.63331 12.7833 5.94998 13.475C4.77498 13.6 3.54998 13.35 2.64998 12.7583C1.33331 11.8833 1.33331 10.4583 2.64998 9.58334C3.54164 8.98334 4.79998 8.74167 5.98331 8.87501C5.64164 9.57501 5.45831 10.3667 5.45831 11.2083Z" fill="currentColor"/>
<path d="M10.1 13.725C10.0333 13.7167 9.95833 13.7167 9.88333 13.725C8.35 13.675 7.125 12.4167 7.125 10.8667C7.13333 9.28333 8.40833 8 10 8C11.5833 8 12.8667 9.28333 12.8667 10.8667C12.8583 12.4167 11.6417 13.675 10.1 13.725Z" fill="currentColor"/>
<path d="M7.39163 15.45C6.13329 16.2916 6.13329 17.675 7.39163 18.5083C8.82496 19.4666 11.175 19.4666 12.6083 18.5083C13.8666 17.6666 13.8666 16.2833 12.6083 15.45C11.1833 14.4916 8.83329 14.4916 7.39163 15.45Z" fill="currentColor"/>
</svg>
