<svg width="25" height="25" viewBox="0 0 25 25" fill="none" xmlns="http://www.w3.org/2000/svg">
<path d="M9.61312 11.6239C9.51312 11.6139 9.39312 11.6139 9.28312 11.6239C6.90312 11.5439 5.01312 9.59391 5.01312 7.19391C5.01312 4.74391 6.99312 2.75391 9.45312 2.75391C11.9031 2.75391 13.8931 4.74391 13.8931 7.19391C13.8831 9.59391 11.9931 11.5439 9.61312 11.6239Z" stroke="#9FA3A9" stroke-width="1.5" stroke-linecap="round" stroke-linejoin="round"/>
<path d="M16.8631 4.75391C18.8031 4.75391 20.3631 6.32391 20.3631 8.25391C20.3631 10.1439 18.8631 11.6839 16.9931 11.7539C16.9131 11.7439 16.8231 11.7439 16.7331 11.7539" stroke="#9FA3A9" stroke-width="1.5" stroke-linecap="round" stroke-linejoin="round"/>
<path d="M4.61313 15.3139C2.19313 16.9339 2.19313 19.5739 4.61313 21.1839C7.36313 23.0239 11.8731 23.0239 14.6231 21.1839C17.0431 19.5639 17.0431 16.9239 14.6231 15.3139C11.8831 13.4839 7.37313 13.4839 4.61313 15.3139Z" stroke="#9FA3A9" stroke-width="1.5" stroke-linecap="round" stroke-linejoin="round"/>
<path d="M18.7931 20.7539C19.5131 20.6039 20.1931 20.3139 20.7531 19.8839C22.3131 18.7139 22.3131 16.7839 20.7531 15.6139C20.2031 15.1939 19.5331 14.9139 18.8231 14.7539" stroke="#9FA3A9" stroke-width="1.5" stroke-linecap="round" stroke-linejoin="round"/>
</svg>
