<svg width="18" height="19" viewBox="0 0 18 19" fill="none" xmlns="http://www.w3.org/2000/svg">
<path d="M6.72311 2.28027C4.78237 2.28027 3.20459 3.85805 3.20459 5.79879C3.20459 7.70249 4.69348 9.24324 6.63422 9.3099C6.69348 9.30249 6.75274 9.30249 6.79718 9.3099C6.812 9.3099 6.8194 9.3099 6.83422 9.3099C6.84163 9.3099 6.84163 9.3099 6.84903 9.3099C8.74533 9.24324 10.2342 7.70249 10.2416 5.79879C10.2416 3.85805 8.66385 2.28027 6.72311 2.28027Z" fill="#2B2F38"/>
<path d="M10.486 11.2804C8.41929 9.90263 5.04892 9.90263 2.96744 11.2804C2.0267 11.91 1.50818 12.7619 1.50818 13.673C1.50818 14.5841 2.0267 15.4286 2.96003 16.0508C3.99707 16.7471 5.36003 17.0952 6.72299 17.0952C8.08596 17.0952 9.44892 16.7471 10.486 16.0508C11.4193 15.4211 11.9378 14.5767 11.9378 13.6582C11.9304 12.7471 11.4193 11.9026 10.486 11.2804Z" fill="#2B2F38"/>
<path d="M14.8637 6.2359C14.9823 7.67294 13.96 8.9322 12.5452 9.10257C12.5378 9.10257 12.5378 9.10257 12.5304 9.10257H12.5082C12.4637 9.10257 12.4193 9.10257 12.3823 9.11738C11.6637 9.15442 11.0045 8.92479 10.5082 8.50257C11.2711 7.82109 11.7082 6.79887 11.6193 5.68775C11.5674 5.08775 11.36 4.53961 11.0489 4.07294C11.3304 3.9322 11.6563 3.84331 11.9897 3.81368C13.4415 3.68775 14.7378 4.76924 14.8637 6.2359Z" fill="#2B2F38"/>
<path d="M16.3452 13.0875C16.286 13.8061 15.8267 14.4283 15.0563 14.8505C14.3156 15.2579 13.3823 15.4505 12.4563 15.4283C12.9897 14.9468 13.3008 14.3468 13.3601 13.7098C13.4341 12.7912 12.9971 11.9098 12.123 11.2061C11.6267 10.8135 11.0489 10.5024 10.4193 10.2727C12.0563 9.79865 14.1156 10.1172 15.3823 11.1394C16.0638 11.6875 16.4119 12.3764 16.3452 13.0875Z" fill="#2B2F38"/>
</svg>
