<svg width="24" height="25" viewBox="0 0 24 25" fill="none" xmlns="http://www.w3.org/2000/svg">
<path d="M11 2.6543C6.02999 2.6543 1.98999 6.6943 1.98999 11.6643C1.98999 16.6343 6.02999 20.6743 11 20.6743C15.97 20.6743 20.01 16.6343 20.01 11.6643C20.01 6.6943 15.97 2.6543 11 2.6543ZM11 13.9143H7.99999C7.58999 13.9143 7.24999 13.5743 7.24999 13.1643C7.24999 12.7543 7.58999 12.4143 7.99999 12.4143H11C11.41 12.4143 11.75 12.7543 11.75 13.1643C11.75 13.5743 11.41 13.9143 11 13.9143ZM14 10.9143H7.99999C7.58999 10.9143 7.24999 10.5743 7.24999 10.1643C7.24999 9.7543 7.58999 9.4143 7.99999 9.4143H14C14.41 9.4143 14.75 9.7543 14.75 10.1643C14.75 10.5743 14.41 10.9143 14 10.9143Z" fill="currentColor"/>
<path d="M21.9901 19.6141C21.6601 19.0041 20.9601 18.6641 20.0201 18.6641C19.3101 18.6641 18.7001 18.9541 18.3401 19.4541C17.9801 19.9541 17.9001 20.6241 18.1201 21.2941C18.5501 22.5941 19.3001 22.8841 19.7101 22.9341C19.7701 22.9441 19.8301 22.9441 19.9001 22.9441C20.3401 22.9441 21.0201 22.7541 21.6801 21.7641C22.2101 20.9941 22.3101 20.2241 21.9901 19.6141Z" fill="currentColor"/>
</svg>
