<svg width="20" height="21" viewBox="0 0 20 21" fill="none" xmlns="http://www.w3.org/2000/svg">
<path d="M13.4917 2.16675H6.50835C3.47502 2.16675 1.66669 3.97508 1.66669 7.00841V13.9917C1.66669 17.0251 3.47502 18.8334 6.50835 18.8334H13.4917C16.525 18.8334 18.3334 17.0251 18.3334 13.9917V7.00841C18.3334 3.97508 16.525 2.16675 13.4917 2.16675ZM8.30835 12.9167L6.43335 14.7917C6.30835 14.9167 6.15002 14.9751 5.99169 14.9751C5.83335 14.9751 5.66669 14.9167 5.55002 14.7917L4.92502 14.1667C4.67502 13.9251 4.67502 13.5251 4.92502 13.2834C5.16669 13.0417 5.55835 13.0417 5.80835 13.2834L5.99169 13.4667L7.42502 12.0334C7.66669 11.7917 8.05835 11.7917 8.30835 12.0334C8.55002 12.2751 8.55002 12.6751 8.30835 12.9167ZM8.30835 7.08341L6.43335 8.95841C6.30835 9.08341 6.15002 9.14175 5.99169 9.14175C5.83335 9.14175 5.66669 9.08341 5.55002 8.95841L4.92502 8.33341C4.67502 8.09175 4.67502 7.69175 4.92502 7.45008C5.16669 7.20841 5.55835 7.20841 5.80835 7.45008L5.99169 7.63341L7.42502 6.20008C7.66669 5.95841 8.05835 5.95841 8.30835 6.20008C8.55002 6.44175 8.55002 6.84175 8.30835 7.08341ZM14.6334 14.3501H10.2584C9.91669 14.3501 9.63335 14.0667 9.63335 13.7251C9.63335 13.3834 9.91669 13.1001 10.2584 13.1001H14.6334C14.9834 13.1001 15.2584 13.3834 15.2584 13.7251C15.2584 14.0667 14.9834 14.3501 14.6334 14.3501ZM14.6334 8.51675H10.2584C9.91669 8.51675 9.63335 8.23341 9.63335 7.89175C9.63335 7.55008 9.91669 7.26675 10.2584 7.26675H14.6334C14.9834 7.26675 15.2584 7.55008 15.2584 7.89175C15.2584 8.23341 14.9834 8.51675 14.6334 8.51675Z" fill="currentColor"/>
</svg>
