<svg width="25" height="25" viewBox="0 0 25 25" fill="none" xmlns="http://www.w3.org/2000/svg">
<path d="M10.7995 2.78394L4.77953 6.71394C2.84953 7.97394 2.84953 10.7939 4.77953 12.0539L10.7995 15.9839C11.8795 16.6939 13.6595 16.6939 14.7395 15.9839L20.7295 12.0539C22.6495 10.7939 22.6495 7.98394 20.7295 6.72394L14.7395 2.79394C13.6595 2.07394 11.8795 2.07394 10.7995 2.78394Z" stroke="#9FA3A9" stroke-width="1.5" stroke-linecap="round" stroke-linejoin="round"/>
<path d="M6.38012 13.334L6.37012 18.024C6.37012 19.294 7.35012 20.654 8.55012 21.054L11.7401 22.114C12.2901 22.294 13.2001 22.294 13.7601 22.114L16.9501 21.054C18.1501 20.654 19.1301 19.294 19.1301 18.024V13.384" stroke="#9FA3A9" stroke-width="1.5" stroke-linecap="round" stroke-linejoin="round"/>
<path d="M22.1504 15.2539V9.25391" stroke="#9FA3A9" stroke-width="1.5" stroke-linecap="round" stroke-linejoin="round"/>
</svg>
