<svg width="25" height="25" viewBox="0 0 25 25" fill="none" xmlns="http://www.w3.org/2000/svg">
<path d="M10.8 2.70948L4.78002 6.63948C2.85002 7.89948 2.85002 10.7195 4.78002 11.9795L10.8 15.9095C11.88 16.6195 13.66 16.6195 14.74 15.9095L20.73 11.9795C22.65 10.7195 22.65 7.90948 20.73 6.64948L14.74 2.71948C13.66 1.99948 11.88 1.99948 10.8 2.70948Z" stroke="#9FA3A9" stroke-width="1.5" stroke-linecap="round" stroke-linejoin="round"/>
<path d="M6.38 13.2598L6.37 17.9498C6.37 19.2198 7.35 20.5798 8.55 20.9798L11.74 22.0398C12.29 22.2198 13.2 22.2198 13.76 22.0398L16.95 20.9798C18.15 20.5798 19.13 19.2198 19.13 17.9498V13.3098" stroke="#9FA3A9" stroke-width="1.5" stroke-linecap="round" stroke-linejoin="round"/>
<path d="M22.15 15.1797V9.17969" stroke="#9FA3A9" stroke-width="1.5" stroke-linecap="round" stroke-linejoin="round"/>
</svg>
