<svg width="24" height="25" viewBox="0 0 24 25" fill="none" xmlns="http://www.w3.org/2000/svg">
<path d="M16.83 16.3042C17.5 15.8642 18.38 16.3442 18.38 17.1442V18.4342C18.38 19.7042 17.39 21.0642 16.2 21.4642L13.01 22.5242C12.45 22.7142 11.54 22.7142 10.99 22.5242L7.8 21.4642C6.6 21.0642 5.62 19.7042 5.62 18.4342V17.1342C5.62 16.3442 6.5 15.8642 7.16 16.2942L9.22 17.6342C10.01 18.1642 11.01 18.4242 12.01 18.4242C13.01 18.4242 14.01 18.1642 14.8 17.6342L16.83 16.3042Z" fill="currentColor"/>
<path d="M19.98 7.12412L13.99 3.19412C12.91 2.48412 11.13 2.48412 10.05 3.19412L4.02999 7.12412C2.09999 8.37412 2.09999 11.2041 4.02999 12.4641L5.62999 13.5041L10.05 16.3841C11.13 17.0941 12.91 17.0941 13.99 16.3841L18.38 13.5041L19.75 12.6041V15.6641C19.75 16.0741 20.09 16.4141 20.5 16.4141C20.91 16.4141 21.25 16.0741 21.25 15.6641V10.7441C21.65 9.45412 21.24 7.95412 19.98 7.12412Z" fill="currentColor"/>
</svg>
