<svg width="24" height="25" viewBox="0 0 24 25" fill="none" xmlns="http://www.w3.org/2000/svg">
<path d="M19.51 6.51406L13.57 3.08406C12.6 2.52406 11.4 2.52406 10.42 3.08406L4.49 6.51406C3.52 7.07406 2.92 8.11406 2.92 9.24406V16.0841C2.92 17.2041 3.52 18.2441 4.49 18.8141L10.43 22.2441C11.4 22.8041 12.6 22.8041 13.58 22.2441L19.52 18.8141C20.49 18.2541 21.09 17.2141 21.09 16.0841V9.24406C21.08 8.11406 20.48 7.08406 19.51 6.51406ZM12 8.00406C13.29 8.00406 14.33 9.04406 14.33 10.3341C14.33 11.6241 13.29 12.6641 12 12.6641C10.71 12.6641 9.67 11.6241 9.67 10.3341C9.67 9.05406 10.71 8.00406 12 8.00406ZM14.68 17.3241H9.32C8.51 17.3241 8.04 16.4241 8.49 15.7541C9.17 14.7441 10.49 14.0641 12 14.0641C13.51 14.0641 14.83 14.7441 15.51 15.7541C15.96 16.4141 15.48 17.3241 14.68 17.3241Z" fill="currentColor"/>
</svg>
